<svg id="Layer_1" data-name="Layer 1" xmlns="http://www.w3.org/2000/svg" xmlns:xlink="http://www.w3.org/1999/xlink" viewBox="0 0 357.04 411.04"><defs><style>.cls-1{opacity:0.79;fill:url(#radial-gradient);}.cls-2{fill:#5e6167;}.cls-3{fill:#fff;}.cls-4{fill:none;stroke:#5e6167;stroke-miterlimit:10;}</style><radialGradient id="radial-gradient" cx="184.65" cy="204.98" r="149.37" gradientUnits="userSpaceOnUse"><stop offset="0" stop-color="#ffb594"/><stop offset="0.46" stop-color="#ff6a00"/><stop offset="1" stop-color="#e94700"/></radialGradient></defs><title>hummingbird-logo</title><circle class="cls-1" cx="184.65" cy="204.98" r="149.37"/><path class="cls-2" d="M186.52,162.73,58.73,157.61l63.86,57.74L30.34,287.06s96.32,3.43,151.69-23.15c0,0,7.46,24.92-91.92,127.1a495.45,495.45,0,0,0,61.41-32.25,498.88,498.88,0,0,0,101-82.63,113.73,113.73,0,0,0,16.6-38.24c12.55-55.63-22.71-102-29.39-110.47,0,0-22.84-29.79,3.48-58.1,1.2-1.29,1.9-2.08,9.31-9.53l12.28-12.37c4.51-4.27,9.4-8.65,14.66-13.06,4.34-3.65,8.61-7,12.77-10.19l-.9-1.32C281,30.79,272,37.46,265,42.62,252,52.26,247.16,55.52,241.41,59a181.66,181.66,0,0,1-19.23,10.34,172.39,172.39,0,0,1-31.52,10.91s-30.34,3.83-22,39.94Z"/><circle class="cls-3" cx="192.45" cy="96.12" r="4.21"/><circle class="cls-4" cx="192.45" cy="96.12" r="4.21"/><path class="cls-3" d="M237.66,124.23a134.92,134.92,0,0,1,29,42.58C271,177.1,279,196.38,277.05,222a114,114,0,0,1-8.74,34.92c-4.35,10.32-12.5,25.55-36.23,48.3C226,311,204.3,330.69,162.42,355.73A485.36,485.36,0,0,1,90.68,391c9-4.87,21.31-11.95,35.5-21.29,19.79-13,38.5-25.35,57.61-45.24a236.57,236.57,0,0,0,35.64-48.16c5.53-9.83,16.06-29,22-54.36C251,181.54,244.14,145.94,237.66,124.23Z"/></svg>